<?xml version="1.0" encoding="utf-8"?>
<!-- Generator: Adobe Illustrator 24.2.3, SVG Export Plug-In . SVG Version: 6.00 Build 0)  -->
<svg version="1.1" id="레이어_1" xmlns="http://www.w3.org/2000/svg" xmlns:xlink="http://www.w3.org/1999/xlink" x="0px"
	 y="0px" viewBox="0 0 38 38" style="enable-background:new 0 0 38 38;" xml:space="preserve">
<g>
	<path d="M32.8,14.8C31,8.8,25.3,4.6,19,4.6c-0.3,0-0.5,0.2-0.5,0.5v4.3c0,0.3,0.2,0.5,0.5,0.5s0.5-0.2,0.5-0.5V5.7
		c5.6,0.2,10.6,4.1,12.2,9.5c0.3,1.1,0.5,2.2,0.5,3.3h-3.7c-0.3,0-0.5,0.2-0.5,0.5s0.2,0.5,0.5,0.5h3.7c-0.2,5.6-4.1,10.6-9.5,12.2
		c-0.3,0.1-0.4,0.4-0.4,0.7c0.1,0.2,0.3,0.4,0.5,0.4c0.1,0,0.1,0,0.2,0c6-1.8,10.3-7.5,10.3-13.8C33.4,17.6,33.2,16.2,32.8,14.8z"/>
	<circle cx="19" cy="19" r="1.8"/>
	<path d="M19,28.1c-0.3,0-0.5,0.2-0.5,0.5v3.7c-5.6-0.2-10.6-4.1-12.2-9.5c-0.3-1.1-0.5-2.2-0.5-3.3h3.7c0.3,0,0.5-0.2,0.5-0.5
		s-0.2-0.5-0.5-0.5H5.7c0.2-5.6,4.1-10.6,9.5-12.2c0.3-0.1,0.4-0.4,0.4-0.7c-0.1-0.3-0.4-0.4-0.7-0.4C8.8,7,4.6,12.7,4.6,19
		c0,1.4,0.2,2.8,0.6,4.2c1.8,6,7.5,10.3,13.8,10.3c0.3,0,0.5-0.2,0.5-0.5v-4.3C19.5,28.3,19.3,28.1,19,28.1z"/>
</g>
</svg>
