<?xml version="1.0" encoding="utf-8"?>
<!-- Generator: Adobe Illustrator 25.0.0, SVG Export Plug-In . SVG Version: 6.00 Build 0)  -->
<svg version="1.1" id="레이어_1" xmlns="http://www.w3.org/2000/svg" xmlns:xlink="http://www.w3.org/1999/xlink" x="0px"
	 y="0px" viewBox="0 0 38 38" style="enable-background:new 0 0 38 38;" xml:space="preserve">
<style type="text/css">
	.st0{display:none;}
	.st1{display:inline;}
</style>
<g class="st0">
	<path class="st1" d="M32.8,14.8C31,8.8,25.3,4.6,19,4.6c-0.3,0-0.5,0.2-0.5,0.5v4.3c0,0.3,0.2,0.5,0.5,0.5s0.5-0.2,0.5-0.5V5.7
		c5.6,0.2,10.6,4.1,12.2,9.5c0.3,1.1,0.5,2.2,0.5,3.3h-3.7c-0.3,0-0.5,0.2-0.5,0.5s0.2,0.5,0.5,0.5h3.7c-0.2,5.6-4.1,10.6-9.5,12.2
		c-0.3,0.1-0.4,0.4-0.4,0.7c0.1,0.2,0.3,0.4,0.5,0.4c0.1,0,0.1,0,0.2,0C29,31,33.3,25.3,33.3,19C33.4,17.6,33.2,16.2,32.8,14.8z"/>
	<circle class="st1" cx="19" cy="19" r="1.8"/>
	<path class="st1" d="M19,28.1c-0.3,0-0.5,0.2-0.5,0.5v3.7c-5.6-0.2-10.6-4.1-12.2-9.5c-0.3-1.1-0.5-2.2-0.5-3.3h3.7
		c0.3,0,0.5-0.2,0.5-0.5s-0.2-0.5-0.5-0.5H5.7c0.2-5.6,4.1-10.6,9.5-12.2c0.3-0.1,0.4-0.4,0.4-0.7c-0.1-0.3-0.4-0.4-0.7-0.4
		C8.8,7,4.6,12.7,4.6,19c0,1.4,0.2,2.8,0.6,4.2c1.8,6,7.5,10.3,13.8,10.3c0.3,0,0.5-0.2,0.5-0.5v-4.3C19.5,28.3,19.3,28.1,19,28.1z"
		/>
</g>
<g class="st0">
	<path class="st1" d="M19.5,16.6c2.9,0,5.2,2.3,5.2,5.2c0,0.3,0.2,0.5,0.5,0.5s0.5-0.2,0.5-0.5c0-3.5-2.8-6.3-6.3-6.3
		c-0.3,0-0.5,0.2-0.5,0.5S19.2,16.6,19.5,16.6z"/>
	<path class="st1" d="M18.9,8.3c0.3,0,0.5-0.2,0.5-0.5V3.9c0-0.3-0.2-0.5-0.5-0.5s-0.5,0.2-0.5,0.5v3.9C18.3,8.1,18.6,8.3,18.9,8.3z
		"/>
	<path class="st1" d="M34.9,12.5c-0.2-0.3-0.5-0.4-0.8-0.2l-3.4,2c-0.3,0.2-0.4,0.5-0.2,0.8c0.1,0.2,0.3,0.3,0.5,0.3
		c0.1,0,0.2,0,0.3-0.1l3.4-2C35,13.1,35.1,12.7,34.9,12.5z"/>
	<path class="st1" d="M25.7,10.1c0.1,0.1,0.2,0.1,0.3,0.1c0.2,0,0.4-0.1,0.5-0.3l2-3.4c0.2-0.3,0.1-0.6-0.2-0.8
		c-0.3-0.2-0.6-0.1-0.8,0.2l-2,3.4C25.4,9.6,25.4,9.9,25.7,10.1z"/>
	<path class="st1" d="M11.5,9.9c0.1,0.2,0.3,0.3,0.5,0.3c0.1,0,0.2,0,0.3-0.1c0.3-0.2,0.4-0.5,0.2-0.8l-2-3.4
		C10.3,5.6,10,5.5,9.7,5.7C9.5,5.9,9.4,6.2,9.6,6.5L11.5,9.9z"/>
	<path class="st1" d="M6.9,15.2c0.2,0,0.4-0.1,0.5-0.3c0.2-0.3,0.1-0.6-0.2-0.8l-3.4-2C3.5,11.9,3.2,12,3,12.3s-0.1,0.6,0.2,0.8
		l3.4,2C6.7,15.2,6.8,15.2,6.9,15.2z"/>
	<path class="st1" d="M32.5,33.6h-3.2V22.1c0-5.7-4.6-10.3-10.3-10.3S8.6,16.4,8.6,22.1v11.5h-3c-0.3,0-0.6,0.2-0.6,0.6v0.6h28v-0.6
		C33,33.8,32.8,33.6,32.5,33.6z M9.7,33.2V22.1c0-5.1,4.1-9.2,9.2-9.2s9.2,4.1,9.2,9.2v11.2l0,0v0.4H9.7V33.2L9.7,33.2L9.7,33.2z"/>
</g>
<g class="st0">
	<path class="st1" d="M11,9.2c-0.3,0-0.5,0.2-0.5,0.5v5.7c0,0.3,0.2,0.5,0.5,0.5s0.5-0.2,0.5-0.5V9.7C11.6,9.5,11.3,9.2,11,9.2z"/>
	<path class="st1" d="M15.2,9.2c-0.3,0-0.5,0.2-0.5,0.5v5.7c0,0.3,0.2,0.5,0.5,0.5s0.5-0.2,0.5-0.5V9.7C15.7,9.5,15.5,9.2,15.2,9.2z
		"/>
	<path class="st1" d="M18.4,4.9H7.7C7,4.9,6.5,5.5,6.5,6.2v12.2c0,0.5,0.2,1,0.6,1.4s0.9,0.6,1.4,0.6l0,0h4.1v5.2h-1.4
		c-0.3,0-0.5,0.2-0.5,0.5v6.6c0,0.3,0.2,0.5,0.5,0.5H15c0.3,0,0.5-0.2,0.5-0.5v-6.6c0-0.3-0.2-0.5-0.5-0.5h-1.3v-5.2h4.1
		c1.1,0,2-0.9,2-2V6.2C19.7,5.5,19.1,4.9,18.4,4.9z M14.4,32.1h-2.7v-5.5h2.7V32.1z M18.6,18.3c0,0.5-0.4,0.9-0.9,0.9H8.5l0,0
		c-0.2,0-0.5-0.1-0.6-0.3s-0.3-0.4-0.3-0.6V6.1c0,0,0.1-0.1,0.2-0.1h10.7c0.1,0,0.2,0.1,0.2,0.2L18.6,18.3z"/>
	<path class="st1" d="M27.7,9.3c-0.3,0-0.5,0.2-0.5,0.5v9.8c0,0.3,0.2,0.6,0.5,0.6s0.5-0.2,0.5-0.6V9.8C28.2,9.5,28,9.3,27.7,9.3z"
		/>
	<path class="st1" d="M30.9,5.5c0-0.6-0.5-1.2-1.2-1.2h-0.4c-1.5,0-2.9,0.5-4,1.4c-1.1,1-1.7,2.3-1.7,3.7v9.5c0,0.8,0.2,1.6,0.5,2.4
		c0.9,2.1,3.1,3.5,5.6,3.6h0.2v7.7c0,0.3,0.2,0.6,0.6,0.6h0.6L30.9,5.5z M25.1,20.9c-0.3-0.6-0.4-1.3-0.4-1.9V9.4
		c0-1.1,0.5-2.1,1.4-2.8c0.9-0.8,2-1.2,3.3-1.2h0.4c0,0,0.1,0,0.1,0.1v18.3h-0.1C27.6,23.8,25.8,22.6,25.1,20.9z"/>
</g>
<g>
	<path d="M35.1,15c0.3,0,0.5-0.2,0.5-0.5v-4.4c0-1-0.8-1.8-1.8-1.8H4.1c-1,0-1.8,0.8-1.8,1.8v4.4c0,0.3,0.2,0.5,0.5,0.5
		c2.2,0.1,3.9,1.8,3.9,4S5,22.9,2.9,23c-0.3,0-0.5,0.3-0.5,0.5v4.4c0,1,0.8,1.8,1.8,1.8h29.7c1,0,1.8-0.8,1.8-1.8v-4.4
		c0-0.3-0.2-0.5-0.5-0.5c-2.2,0-4-1.8-4-4S32.9,15,35.1,15z M3.4,27.9V24c2.5-0.3,4.4-2.4,4.4-5s-1.9-4.7-4.4-5v-3.9
		c0-0.4,0.3-0.7,0.7-0.7H12v19.2H4.1C3.7,28.6,3.4,28.3,3.4,27.9z M30,19c0,2.6,2,4.8,4.5,5v3.8c0,0.4-0.3,0.7-0.7,0.7H13.1V9.4
		h20.8c0.4,0,0.7,0.3,0.7,0.7V14C32,14.2,30,16.4,30,19z"/>
	<path d="M26.2,14.7c-0.2-0.2-0.6-0.2-0.8,0l-7.8,7.8c-0.2,0.2-0.2,0.6,0,0.8c0.1,0.1,0.2,0.2,0.4,0.2s0.3-0.1,0.4-0.2l7.8-7.8
		C26.4,15.3,26.4,14.9,26.2,14.7z"/>
	<path d="M26.2,19.7c-0.9-0.9-2.3-0.9-3.1,0c-0.9,0.9-0.9,2.3,0,3.1c0.4,0.4,1,0.6,1.6,0.6s1.1-0.2,1.6-0.6
		C27.1,22,27.1,20.6,26.2,19.7L26.2,19.7z M25.4,22.1c-0.4,0.4-1.1,0.4-1.6,0c-0.4-0.4-0.4-1.1,0-1.6c0.2-0.2,0.5-0.3,0.8-0.3
		s0.6,0.1,0.8,0.3C25.8,20.9,25.8,21.6,25.4,22.1z"/>
	<path d="M19.1,19c0.6,0,1.1-0.2,1.6-0.6c0.4-0.4,0.6-1,0.6-1.6c0-0.6-0.2-1.1-0.6-1.6c0,0,0,0,0,0c-0.8-0.8-2.3-0.8-3.1,0
		c-0.4,0.4-0.6,1-0.6,1.6c0,0.6,0.2,1.1,0.6,1.6C18,18.7,18.5,19,19.1,19z M18.4,15.9c0.2-0.2,0.5-0.3,0.8-0.3
		c0.3,0,0.6,0.1,0.8,0.3v0c0.2,0.2,0.3,0.5,0.3,0.8c0,0.3-0.1,0.6-0.3,0.8c-0.4,0.4-1.2,0.4-1.6,0C18.1,17.3,18,17,18,16.7
		C18,16.4,18.1,16.2,18.4,15.9z"/>
</g>
</svg>
