<?xml version="1.0" encoding="utf-8"?>
<!-- Generator: Adobe Illustrator 24.2.3, SVG Export Plug-In . SVG Version: 6.00 Build 0)  -->
<svg version="1.1" id="레이어_1" xmlns="http://www.w3.org/2000/svg" xmlns:xlink="http://www.w3.org/1999/xlink" x="0px"
	 y="0px" viewBox="0 0 38 38" style="enable-background:new 0 0 38 38;" xml:space="preserve">
<style type="text/css">
	.st0{display:none;}
	.st1{display:inline;}
</style>
<g class="st0">
	<path class="st1" d="M32.8,14.8C31,8.8,25.3,4.6,19,4.6c-0.3,0-0.5,0.2-0.5,0.5v4.3c0,0.3,0.2,0.5,0.5,0.5s0.5-0.2,0.5-0.5V5.7
		c5.6,0.2,10.6,4.1,12.2,9.5c0.3,1.1,0.5,2.2,0.5,3.3h-3.7c-0.3,0-0.5,0.2-0.5,0.5s0.2,0.5,0.5,0.5h3.7c-0.2,5.6-4.1,10.6-9.5,12.2
		c-0.3,0.1-0.4,0.4-0.4,0.7c0.1,0.2,0.3,0.4,0.5,0.4c0.1,0,0.1,0,0.2,0c6-1.8,10.3-7.5,10.3-13.8C33.4,17.6,33.2,16.2,32.8,14.8z"/>
	<circle class="st1" cx="19" cy="19" r="1.8"/>
	<path class="st1" d="M19,28.1c-0.3,0-0.5,0.2-0.5,0.5v3.7c-5.6-0.2-10.6-4.1-12.2-9.5c-0.3-1.1-0.5-2.2-0.5-3.3h3.7
		c0.3,0,0.5-0.2,0.5-0.5s-0.2-0.5-0.5-0.5H5.7c0.2-5.6,4.1-10.6,9.5-12.2c0.3-0.1,0.4-0.4,0.4-0.7c-0.1-0.3-0.4-0.4-0.7-0.4
		C8.8,7,4.6,12.7,4.6,19c0,1.4,0.2,2.8,0.6,4.2c1.8,6,7.5,10.3,13.8,10.3c0.3,0,0.5-0.2,0.5-0.5v-4.3C19.5,28.3,19.3,28.1,19,28.1z"
		/>
</g>
<g>
	<path d="M19.5,16.6c2.9,0,5.2,2.3,5.2,5.2c0,0.3,0.2,0.5,0.5,0.5s0.5-0.2,0.5-0.5c0-3.5-2.8-6.3-6.3-6.3c-0.3,0-0.5,0.2-0.5,0.5
		S19.2,16.6,19.5,16.6z"/>
	<path d="M18.9,8.3c0.3,0,0.5-0.2,0.5-0.5V3.9c0-0.3-0.2-0.5-0.5-0.5s-0.5,0.2-0.5,0.5v3.9C18.3,8.1,18.6,8.3,18.9,8.3z"/>
	<path d="M34.9,12.5c-0.2-0.3-0.5-0.4-0.8-0.2l-3.4,2c-0.3,0.2-0.4,0.5-0.2,0.8c0.1,0.2,0.3,0.3,0.5,0.3c0.1,0,0.2,0,0.3-0.1l3.4-2
		C35,13.1,35.1,12.7,34.9,12.5z"/>
	<path d="M25.7,10.1c0.1,0.1,0.2,0.1,0.3,0.1c0.2,0,0.4-0.1,0.5-0.3l2-3.4c0.2-0.3,0.1-0.6-0.2-0.8c-0.3-0.2-0.6-0.1-0.8,0.2l-2,3.4
		C25.4,9.6,25.4,9.9,25.7,10.1z"/>
	<path d="M11.5,9.9c0.1,0.2,0.3,0.3,0.5,0.3c0.1,0,0.2,0,0.3-0.1c0.3-0.2,0.4-0.5,0.2-0.8l-2-3.4c-0.2-0.3-0.5-0.4-0.8-0.2
		C9.5,5.9,9.4,6.2,9.6,6.5L11.5,9.9z"/>
	<path d="M6.9,15.2c0.2,0,0.4-0.1,0.5-0.3c0.2-0.3,0.1-0.6-0.2-0.8l-3.4-2c-0.3-0.2-0.6-0.1-0.8,0.2c-0.2,0.3-0.1,0.6,0.2,0.8l3.4,2
		C6.7,15.2,6.8,15.2,6.9,15.2z"/>
	<path d="M32.5,33.6l-3.2,0l0-11.5c0-5.7-4.6-10.3-10.3-10.3S8.6,16.4,8.6,22.1l0,11.5l-3,0c-0.3,0-0.6,0.2-0.6,0.6v0.6h28v-0.6
		C33,33.8,32.8,33.6,32.5,33.6z M9.7,33.2V22.1c0-5.1,4.1-9.2,9.2-9.2s9.2,4.1,9.2,9.2v11.2l0,0v0.4H9.7L9.7,33.2L9.7,33.2
		C9.7,33.2,9.7,33.2,9.7,33.2z"/>
</g>
</svg>
