<?xml version="1.0" encoding="utf-8"?>
<!-- Generator: Adobe Illustrator 21.1.0, SVG Export Plug-In . SVG Version: 6.00 Build 0)  -->
<svg version="1.1" id="레이어_1" xmlns="http://www.w3.org/2000/svg" xmlns:xlink="http://www.w3.org/1999/xlink" x="0px"
	 y="0px" viewBox="0 0 38 38" style="enable-background:new 0 0 38 38;" xml:space="preserve">
<style type="text/css">
	.st0{display:none;}
	.st1{display:inline;}
	.st2{display:inline;fill:none;stroke:#000000;stroke-width:1.1;stroke-linecap:round;stroke-linejoin:round;stroke-miterlimit:10;}
</style>
<g class="st0">
	<g class="st1">
		<path d="M19,24.7c-3.1,0-5.7-2.6-5.7-5.7c0-3.1,2.6-5.7,5.7-5.7s5.7,2.6,5.7,5.7C24.7,22.1,22.1,24.7,19,24.7z M19,14.4
			c-2.5,0-4.6,2.1-4.6,4.6s2.1,4.6,4.6,4.6s4.6-2.1,4.6-4.6S21.5,14.4,19,14.4z"/>
	</g>
	<path class="st1" d="M32.1,6.5c0-0.3-0.2-0.5-0.5-0.5l-8.1,0v0.6c0,0.3,0.2,0.6,0.6,0.6l7,0l0,7c0,0.3,0.2,0.6,0.6,0.6h0.6
		L32.1,6.5z"/>
	<path class="st1" d="M6.5,5.9c-0.3,0-0.5,0.2-0.5,0.5l0,7.6v0.6h0.6c0.3,0,0.6-0.2,0.6-0.6l0-7l7,0c0.3,0,0.6-0.2,0.6-0.6V5.9
		L6.5,5.9z"/>
	<path class="st1" d="M31.5,23.4c-0.3,0-0.6,0.2-0.6,0.6l0,7l-7,0c-0.3,0-0.6,0.2-0.6,0.6v0.6l8.1,0c0.3,0,0.5-0.2,0.5-0.5l0-8.1
		H31.5z"/>
	<path class="st1" d="M14.1,31l-7,0l0-7c0-0.3-0.2-0.6-0.6-0.6H5.9l0,8.1c0,0.3,0.2,0.5,0.5,0.5l8.1,0v-0.6
		C14.6,31.2,14.4,31,14.1,31z"/>
</g>
<g class="st0">
	<path class="st1" d="M30.7,17.3h-1.9v-4.7c0-5.4-4.4-9.7-9.7-9.7s-9.7,4.4-9.7,9.7v4.7H7.3c-0.3,0-0.5,0.2-0.5,0.5v8.1
		c0,1.1,0.9,2,2,2h6.5v5.5l-3.9,0c-0.3,0-0.6,0.2-0.6,0.6v0.6h16.2V34c0-0.3-0.2-0.6-0.6-0.6l-3.9,0v-5.5h6.5c1.1,0,2-0.9,2-2v-8.1
		C31.2,17.5,31,17.3,30.7,17.3z M10.4,12.6C10.4,7.9,14.2,4,19,4c4.8,0,8.6,3.9,8.6,8.6v4.7h-0.5c-1.1,0-2,0.9-2,2v7.5H12.9v-7.5
		c0-1.1-0.9-2-2-2h-0.5V12.6z M7.9,25.9v-7.5h2.9c0.5,0,0.9,0.4,0.9,0.9v7.5H8.8C8.3,26.8,7.9,26.4,7.9,25.9z M21.6,33.4h-5.2v-5.5
		h5.2V33.4z M30.1,25.9c0,0.5-0.4,0.9-0.9,0.9h-2.9v-7.5c0-0.5,0.4-0.9,0.9-0.9h2.9V25.9z"/>
	<circle class="st1" cx="15.9" cy="10" r="0.5"/>
	<circle class="st1" cx="15.9" cy="14.2" r="0.5"/>
	<circle class="st1" cx="22.1" cy="10" r="0.5"/>
	<circle class="st1" cx="22.1" cy="14.2" r="0.5"/>
</g>
<g>
	<g>
		<path d="M18.7,16.9c-3.7,0-6.8-3-6.8-6.8s3-6.8,6.8-6.8c3.7,0,6.8,3,6.8,6.8S22.5,16.9,18.7,16.9z M18.7,4.4
			c-3.1,0-5.7,2.6-5.7,5.7s2.6,5.7,5.7,5.7c3.1,0,5.7-2.6,5.7-5.7S21.9,4.4,18.7,4.4z"/>
	</g>
	<path d="M30.5,30.6c0-6.5-5.3-11.8-11.8-11.8c-6.5,0-11.8,5.3-11.8,11.8v1.5c0,1.1,0.9,2,2,2l17.6,0v-0.6c0-0.3-0.2-0.6-0.6-0.6
		l-17,0c-0.5,0-0.9-0.4-0.9-0.9v-1.5C8,24.8,12.8,20,18.7,20c5.9,0,10.7,4.8,10.7,10.7l0,3c0,0.3,0.2,0.6,0.6,0.6h0.6L30.5,30.6z"/>
</g>
<g class="st0">
	<path class="st2" d="M32.9,19c0,6.3-4.2,11.6-9.9,13.3c-1.3,0.4-2.6,0.6-4,0.6c-6.3,0-11.6-4.2-13.3-9.9c-0.4-1.3-0.6-2.6-0.6-4
		c0-6.3,4.2-11.6,9.9-13.3c1.3-0.4,2.6-0.6,4-0.6c6.3,0,11.6,4.2,13.3,9.9C32.7,16.3,32.9,17.6,32.9,19z"/>
	<path class="st1" d="M20.8,19c0,1-0.8,1.8-1.8,1.8c-1,0-1.8-0.8-1.8-1.8c0-1,0.8-1.8,1.8-1.8C20,17.2,20.8,18,20.8,19"/>
	<line class="st2" x1="19" y1="9.4" x2="19" y2="5.1"/>
	<line class="st2" x1="19" y1="32.9" x2="19" y2="28.6"/>
	<line class="st2" x1="9.4" y1="19" x2="5.1" y2="19"/>
	<line class="st2" x1="32.9" y1="19" x2="28.6" y2="19"/>
</g>
<g class="st0">
	<circle class="st2" cx="15.5" cy="15.6" r="11.3"/>
	<line class="st2" x1="23.5" y1="23.6" x2="32.6" y2="32.7"/>
	<path class="st1" d="M33.4,32.7l-1-1l-0.3,1.2l0.6,0.6c0.2,0.2,0.6,0.2,0.8,0l0.4-0.4L33.4,32.7z"/>
</g>
<g class="st0">
	<line class="st2" x1="7.9" y1="8" x2="30.1" y2="30.2"/>
	<path class="st1" d="M30.5,29.8l-1-1L29.1,30l0.6,0.6c0.2,0.2,0.6,0.2,0.8,0l0.4-0.4L30.5,29.8z"/>
	<path class="st1" d="M7.5,29.8l1-1L8.9,30l-0.6,0.6c-0.2,0.2-0.6,0.2-0.8,0l-0.4-0.4L7.5,29.8z"/>
	<line class="st2" x1="30.1" y1="8" x2="7.9" y2="30.2"/>
	<path class="st1" d="M29.7,7.7l-1,1L29.9,9l0.6-0.6c0.2-0.2,0.2-0.6,0-0.8l-0.4-0.4L29.7,7.7z"/>
	<path class="st1" d="M8.3,7.7l1,1L8.1,9L7.5,8.4c-0.2-0.2-0.2-0.6,0-0.8l0.4-0.4L8.3,7.7z"/>
</g>
<g class="st0">
	<line class="st2" x1="24.8" y1="19" x2="13.7" y2="30.1"/>
	<path class="st1" d="M14.1,30.5l1-1l-1.2-0.3l-0.6,0.6c-0.2,0.2-0.2,0.6,0,0.8l0.4,0.4L14.1,30.5z"/>
	<line class="st2" x1="24.8" y1="19" x2="13.7" y2="7.9"/>
	<path class="st1" d="M14.1,7.5l1,1l-1.2,0.3l-0.6-0.6c-0.2-0.2-0.2-0.6,0-0.8l0.4-0.4L14.1,7.5z"/>
</g>
<g class="st0">
	<path class="st1" d="M19.5,5.9c-0.3-0.4-0.7-0.7-1.2-0.7l-0.3,0c-2.1,0-8.5,0-10.1,0c-0.9,0-1.5,0.2-2,0.7c-0.4,0.4-0.6,1-0.5,1.6
		C5.6,9.6,7,21.9,8.3,23.7c0.1,0.1,0.2,0.2,0.4,0.2v8.7c0,0.3,0.3,0.6,0.6,0.6h0.6v-0.6v-9.2c2.7-1.6,8.2-4.3,11-5.6l0.2-0.1
		c0.2-0.1,0.3-0.3,0.3-0.5C21.2,13.9,20.7,7.9,19.5,5.9z M8.9,22.6C8,20,6.7,10.3,6.5,7.4c0-0.2,0-0.5,0.2-0.7
		c0.2-0.2,0.6-0.3,1.1-0.3c0,0,0,0,0.1,0c1.6,0,8,0,10.1,0l0.3,0c0.1,0,0.2,0.1,0.3,0.1c1,1.7,1.5,7,1.5,10.3
		C19,17.3,12,20.7,8.9,22.6z"/>
	<g class="st1">
		<path d="M23.2,19.4c-0.1,0-0.2,0-0.3-0.1c-0.2-0.1-0.3-0.3-0.3-0.5l0,0c0-0.1,0-2.2,0-2.3c0-3.7-0.7-7.1-0.7-7.1
			c0-0.2,0-0.4,0.1-0.5c0.1-0.1,0.3-0.2,0.5-0.2l9.7,1.3c0.8,0.1,1.2,0.4,1.4,0.8c0.2,0.6-0.3,1.1-0.7,1.4c-0.1,0.1-8,6-8.7,6.5
			c-0.2,0.2-0.6,0.4-0.8,0.6C23.4,19.3,23.3,19.4,23.2,19.4z M23.2,9.8c0.2,1.2,0.6,3.8,0.6,6.6c0,0,0,0.7,0,1.3
			c1.4-1,8.2-6.2,8.5-6.4c0.1-0.1,0.2-0.2,0.2-0.2c-0.1,0-0.2-0.1-0.4-0.1L23.2,9.8z"/>
	</g>
</g>
</svg>
