<?xml version="1.0" encoding="utf-8"?>
<!-- Generator: Adobe Illustrator 25.0.0, SVG Export Plug-In . SVG Version: 6.00 Build 0)  -->
<svg version="1.1" id="레이어_1" xmlns="http://www.w3.org/2000/svg" xmlns:xlink="http://www.w3.org/1999/xlink" x="0px"
	 y="0px" viewBox="0 0 38 38" style="enable-background:new 0 0 38 38;" xml:space="preserve">
<style type="text/css">
	.st0{display:none;}
	.st1{display:inline;}
</style>
<g class="st0">
	<path class="st1" d="M32.8,14.8C31,8.8,25.3,4.6,19,4.6c-0.3,0-0.5,0.2-0.5,0.5v4.3c0,0.3,0.2,0.5,0.5,0.5s0.5-0.2,0.5-0.5V5.7
		c5.6,0.2,10.6,4.1,12.2,9.5c0.3,1.1,0.5,2.2,0.5,3.3h-3.7c-0.3,0-0.5,0.2-0.5,0.5s0.2,0.5,0.5,0.5h3.7c-0.2,5.6-4.1,10.6-9.5,12.2
		c-0.3,0.1-0.4,0.4-0.4,0.7c0.1,0.2,0.3,0.4,0.5,0.4c0.1,0,0.1,0,0.2,0C29,31,33.3,25.3,33.3,19C33.4,17.6,33.2,16.2,32.8,14.8z"/>
	<circle class="st1" cx="19" cy="19" r="1.8"/>
	<path class="st1" d="M19,28.1c-0.3,0-0.5,0.2-0.5,0.5v3.7c-5.6-0.2-10.6-4.1-12.2-9.5c-0.3-1.1-0.5-2.2-0.5-3.3h3.7
		c0.3,0,0.5-0.2,0.5-0.5s-0.2-0.5-0.5-0.5H5.7c0.2-5.6,4.1-10.6,9.5-12.2c0.3-0.1,0.4-0.4,0.4-0.7c-0.1-0.3-0.4-0.4-0.7-0.4
		C8.8,7,4.6,12.7,4.6,19c0,1.4,0.2,2.8,0.6,4.2c1.8,6,7.5,10.3,13.8,10.3c0.3,0,0.5-0.2,0.5-0.5v-4.3C19.5,28.3,19.3,28.1,19,28.1z"
		/>
</g>
<g class="st0">
	<path class="st1" d="M19.5,16.6c2.9,0,5.2,2.3,5.2,5.2c0,0.3,0.2,0.5,0.5,0.5s0.5-0.2,0.5-0.5c0-3.5-2.8-6.3-6.3-6.3
		c-0.3,0-0.5,0.2-0.5,0.5S19.2,16.6,19.5,16.6z"/>
	<path class="st1" d="M18.9,8.3c0.3,0,0.5-0.2,0.5-0.5V3.9c0-0.3-0.2-0.5-0.5-0.5s-0.5,0.2-0.5,0.5v3.9C18.3,8.1,18.6,8.3,18.9,8.3z
		"/>
	<path class="st1" d="M34.9,12.5c-0.2-0.3-0.5-0.4-0.8-0.2l-3.4,2c-0.3,0.2-0.4,0.5-0.2,0.8c0.1,0.2,0.3,0.3,0.5,0.3
		c0.1,0,0.2,0,0.3-0.1l3.4-2C35,13.1,35.1,12.7,34.9,12.5z"/>
	<path class="st1" d="M25.7,10.1c0.1,0.1,0.2,0.1,0.3,0.1c0.2,0,0.4-0.1,0.5-0.3l2-3.4c0.2-0.3,0.1-0.6-0.2-0.8
		c-0.3-0.2-0.6-0.1-0.8,0.2l-2,3.4C25.4,9.6,25.4,9.9,25.7,10.1z"/>
	<path class="st1" d="M11.5,9.9c0.1,0.2,0.3,0.3,0.5,0.3c0.1,0,0.2,0,0.3-0.1c0.3-0.2,0.4-0.5,0.2-0.8l-2-3.4
		C10.3,5.6,10,5.5,9.7,5.7C9.5,5.9,9.4,6.2,9.6,6.5L11.5,9.9z"/>
	<path class="st1" d="M6.9,15.2c0.2,0,0.4-0.1,0.5-0.3c0.2-0.3,0.1-0.6-0.2-0.8l-3.4-2C3.5,11.9,3.2,12,3,12.3s-0.1,0.6,0.2,0.8
		l3.4,2C6.7,15.2,6.8,15.2,6.9,15.2z"/>
	<path class="st1" d="M32.5,33.6h-3.2V22.1c0-5.7-4.6-10.3-10.3-10.3S8.6,16.4,8.6,22.1v11.5h-3c-0.3,0-0.6,0.2-0.6,0.6v0.6h28v-0.6
		C33,33.8,32.8,33.6,32.5,33.6z M9.7,33.2V22.1c0-5.1,4.1-9.2,9.2-9.2s9.2,4.1,9.2,9.2v11.2l0,0v0.4H9.7V33.2L9.7,33.2L9.7,33.2z"/>
</g>
<g class="st0">
	<path class="st1" d="M11,9.2c-0.3,0-0.5,0.2-0.5,0.5v5.7c0,0.3,0.2,0.5,0.5,0.5s0.5-0.2,0.5-0.5V9.7C11.6,9.5,11.3,9.2,11,9.2z"/>
	<path class="st1" d="M15.2,9.2c-0.3,0-0.5,0.2-0.5,0.5v5.7c0,0.3,0.2,0.5,0.5,0.5s0.5-0.2,0.5-0.5V9.7C15.7,9.5,15.5,9.2,15.2,9.2z
		"/>
	<path class="st1" d="M18.4,4.9H7.7C7,4.9,6.5,5.5,6.5,6.2v12.2c0,0.5,0.2,1,0.6,1.4s0.9,0.6,1.4,0.6l0,0h4.1v5.2h-1.4
		c-0.3,0-0.5,0.2-0.5,0.5v6.6c0,0.3,0.2,0.5,0.5,0.5H15c0.3,0,0.5-0.2,0.5-0.5v-6.6c0-0.3-0.2-0.5-0.5-0.5h-1.3v-5.2h4.1
		c1.1,0,2-0.9,2-2V6.2C19.7,5.5,19.1,4.9,18.4,4.9z M14.4,32.1h-2.7v-5.5h2.7V32.1z M18.6,18.3c0,0.5-0.4,0.9-0.9,0.9H8.5l0,0
		c-0.2,0-0.5-0.1-0.6-0.3s-0.3-0.4-0.3-0.6V6.1c0,0,0.1-0.1,0.2-0.1h10.7c0.1,0,0.2,0.1,0.2,0.2L18.6,18.3z"/>
	<path class="st1" d="M27.7,9.3c-0.3,0-0.5,0.2-0.5,0.5v9.8c0,0.3,0.2,0.6,0.5,0.6s0.5-0.2,0.5-0.6V9.8C28.2,9.5,28,9.3,27.7,9.3z"
		/>
	<path class="st1" d="M30.9,5.5c0-0.6-0.5-1.2-1.2-1.2h-0.4c-1.5,0-2.9,0.5-4,1.4c-1.1,1-1.7,2.3-1.7,3.7v9.5c0,0.8,0.2,1.6,0.5,2.4
		c0.9,2.1,3.1,3.5,5.6,3.6h0.2v7.7c0,0.3,0.2,0.6,0.6,0.6h0.6L30.9,5.5z M25.1,20.9c-0.3-0.6-0.4-1.3-0.4-1.9V9.4
		c0-1.1,0.5-2.1,1.4-2.8c0.9-0.8,2-1.2,3.3-1.2h0.4c0,0,0.1,0,0.1,0.1v18.3h-0.1C27.6,23.8,25.8,22.6,25.1,20.9z"/>
</g>
<g>
	<path d="M29.4,6.7l-3.1,0v0.6c0,0.3,0.2,0.6,0.6,0.6l2.5,0c0.4,0,0.7,0.3,0.7,0.7v24.8c0,0.4-0.3,0.7-0.7,0.7H8.6
		c-0.4,0-0.7-0.3-0.7-0.7V8.5c0-0.4,0.3-0.7,0.7-0.7l2.5,0c0.3,0,0.6-0.2,0.6-0.6V6.7l-3.1,0c-1,0-1.8,0.8-1.8,1.8v24.8
		c0,1,0.8,1.8,1.8,1.8h20.8c1,0,1.8-0.8,1.8-1.8V8.5C31.2,7.5,30.4,6.7,29.4,6.7z"/>
	<path d="M13.9,9.5h10.3c0.3,0,0.5-0.2,0.5-0.5V5.7c0-0.3-0.2-0.5-0.5-0.5h-2.7c-0.1-1.2-1.1-2.2-2.4-2.2s-2.3,1-2.4,2.2h-2.8
		c-0.3,0-0.5,0.2-0.5,0.5V9C13.3,9.3,13.6,9.5,13.9,9.5z M14.4,6.2h2.8c0.3,0,0.5-0.2,0.5-0.5V5.3C17.7,4.6,18.3,4,19,4
		s1.3,0.6,1.3,1.3v0.4c0,0.3,0.2,0.5,0.5,0.5h2.7v2.2h-9.2V6.2z"/>
	<path d="M26.2,14.8H19c-0.3,0-0.5,0.2-0.5,0.5s0.2,0.5,0.5,0.5h7.2c0.3,0,0.5-0.2,0.5-0.5S26.5,14.8,26.2,14.8z"/>
	<path d="M11.3,15.5l1.2,1.5c0.1,0.1,0.2,0.2,0.4,0.2c0,0,0,0,0,0c0.1,0,0.3-0.1,0.4-0.2l3.3-3.2c0.2-0.2,0.2-0.6,0-0.8
		c-0.2-0.2-0.6-0.2-0.8,0L13,15.9l-0.8-1c-0.2-0.2-0.5-0.3-0.8-0.1C11.2,15,11.1,15.3,11.3,15.5z"/>
	<path d="M26.2,21.4H19c-0.3,0-0.5,0.2-0.5,0.5s0.2,0.5,0.5,0.5h7.2c0.3,0,0.5-0.2,0.5-0.5S26.5,21.4,26.2,21.4z"/>
	<path d="M16.7,19.8c-0.2-0.2-0.6-0.2-0.8,0L13,22.5l-0.8-1c-0.2-0.2-0.5-0.3-0.8-0.1c-0.2,0.2-0.3,0.5-0.1,0.8l1.2,1.5
		c0.1,0.1,0.2,0.2,0.4,0.2c0,0,0,0,0,0c0.1,0,0.3-0.1,0.4-0.2l3.3-3.2C16.9,20.4,16.9,20,16.7,19.8z"/>
	<path d="M26.2,28.1H19c-0.3,0-0.5,0.2-0.5,0.5s0.2,0.5,0.5,0.5h7.2c0.3,0,0.5-0.2,0.5-0.5S26.5,28.1,26.2,28.1z"/>
	<path d="M15.9,26.4L13,29.2l-0.8-1c-0.2-0.2-0.5-0.3-0.8-0.1c-0.2,0.2-0.3,0.5-0.1,0.8l1.2,1.5c0.1,0.1,0.2,0.2,0.4,0.2
		c0,0,0,0,0,0c0.1,0,0.3-0.1,0.4-0.2l3.3-3.2c0.2-0.2,0.2-0.6,0-0.8C16.5,26.2,16.1,26.2,15.9,26.4z"/>
</g>
</svg>
